<svg width="152" height="98" viewBox="0 0 152 98" fill="none" xmlns="http://www.w3.org/2000/svg">
<path d="M14.5204 90.1975C14.5204 89.2454 14.1864 88.5035 13.5184 87.9719C12.8625 87.4402 11.7026 86.89 10.0386 86.3212C8.37461 85.7524 7.01426 85.2022 5.95757 84.6705C2.52028 82.9519 0.80163 80.5902 0.80163 77.5856C0.80163 76.0895 1.22674 74.7727 2.07695 73.6352C2.93931 72.4853 4.1539 71.595 5.72072 70.9644C7.28755 70.3215 9.0487 70 11.0042 70C12.9111 70 14.6176 70.3462 16.1237 71.0386C17.6419 71.731 18.8201 72.7202 19.6582 74.0061C20.4962 75.2797 20.9153 76.7387 20.9153 78.3832H14.5387C14.5387 77.2827 14.2046 76.4296 13.5366 75.8237C12.8807 75.2178 11.988 74.9149 10.8584 74.9149C9.71673 74.9149 8.81186 75.1746 8.14383 75.6939C7.48795 76.2008 7.16001 76.85 7.16001 77.6413C7.16001 78.3337 7.52439 78.9643 8.25315 79.5331C8.9819 80.0895 10.2633 80.6706 12.0973 81.2765C13.9314 81.87 15.4375 82.5129 16.6156 83.2053C19.482 84.8869 20.9153 87.2053 20.9153 90.1604C20.9153 92.522 20.0408 94.3767 18.2917 95.7244C16.5427 97.0722 14.1439 97.746 11.0953 97.746C8.94546 97.746 6.99604 97.3565 5.24703 96.5776C3.51017 95.7863 2.19841 94.7105 1.31176 93.3504C0.437253 91.978 0 90.4015 0 88.621H6.41304C6.41304 90.0677 6.77742 91.1372 7.50617 91.8296C8.24707 92.5096 9.44345 92.8497 11.0953 92.8497C12.152 92.8497 12.984 92.6209 13.5913 92.1634C14.2107 91.6936 14.5204 91.0383 14.5204 90.1975Z" fill="black"/>
<path d="M33.213 87.3227L30.5895 90.2531V97.3751H24.1947V70.3709H30.5895V82.278L32.8122 78.8468L38.5329 70.3709H46.4399L37.4762 82.3151L46.4399 97.3751H38.8608L33.213 87.3227Z" fill="black"/>
<path d="M57.772 82.0925L62.6547 70.3709H69.5596L61.015 87.6751V97.3751H54.5291V87.6751L46.0026 70.3709H52.8711L57.772 82.0925Z" fill="black"/>
<path d="M80.7824 97.3751V70.3709H89.3271C91.6713 70.3709 93.7786 70.915 95.649 72.0031C97.5195 73.0788 98.977 74.6058 100.022 76.5841C101.078 78.5501 101.613 80.7572 101.625 83.2053V84.448C101.625 86.9209 101.109 89.1403 100.076 91.1063C99.056 93.0599 97.6106 94.5931 95.7401 95.7059C93.8818 96.8063 91.8049 97.3627 89.5093 97.3751H80.7824ZM87.1773 75.3971V92.3675H89.4C91.234 92.3675 92.6429 91.706 93.6267 90.3829C94.6106 89.0476 95.1025 87.0692 95.1025 84.448V83.2795C95.1025 80.6706 94.6106 78.7046 93.6267 77.3816C92.6429 76.0586 91.2097 75.3971 89.3271 75.3971H87.1773Z" fill="black"/>
<path d="M119.57 92.3304H110.807L109.277 97.3751H102.445L112.174 70.3709H118.186L127.988 97.3751H121.119L119.57 92.3304ZM112.338 87.3042H118.04L115.18 77.938L112.338 87.3042Z" fill="black"/>
<path d="M152 84.4294C152 87.0631 151.52 89.3938 150.561 91.4216C149.601 93.4494 148.235 95.0135 146.461 96.1139C144.7 97.202 142.69 97.746 140.431 97.746C138.172 97.746 136.168 97.2205 134.419 96.1696C132.67 95.1062 131.303 93.5915 130.32 91.6256C129.348 89.6596 128.838 87.4031 128.789 84.856V83.3352C128.789 80.6891 129.263 78.3584 130.21 76.343C131.17 74.3152 132.536 72.7511 134.309 71.6507C136.095 70.5502 138.123 70 140.395 70C142.642 70 144.646 70.544 146.407 71.6321C148.168 72.7202 149.534 74.2719 150.506 76.2874C151.49 78.2904 151.988 80.5902 152 83.1868V84.4294ZM145.496 83.2981C145.496 80.615 145.053 78.581 144.166 77.1962C143.291 75.799 142.034 75.1004 140.395 75.1004C137.188 75.1004 135.494 77.5486 135.312 82.4449L135.293 84.4294C135.293 87.0754 135.724 89.1094 136.587 90.5313C137.449 91.9532 138.731 92.6642 140.431 92.6642C142.046 92.6642 143.291 91.9656 144.166 90.5684C145.04 89.1712 145.484 87.162 145.496 84.5407V83.2981Z" fill="black"/>
<path fill-rule="evenodd" clip-rule="evenodd" d="M75.4977 0.0349698C72.0674 0.195664 68.6853 1.49874 65.9904 3.69789C65.1533 4.38103 64.4336 5.10999 63.6539 6.06429C61.4316 8.78459 60.1338 12.0624 59.8687 15.624C59.8142 16.3556 59.8462 18.1107 59.926 18.7726C60.5229 23.7245 63.1212 28.0438 67.1466 30.7759C67.9244 31.3039 68.208 31.4732 68.9504 31.853C69.653 32.2123 70.3442 32.5062 71.0618 32.7507C71.6275 32.9435 72.7961 33.2639 72.9334 33.2639C72.9985 33.2639 73.4906 32.2773 74.1916 30.7412C74.3535 30.3865 74.8996 29.2086 75.4052 28.1237C76.4233 25.939 77.4477 23.7055 77.4813 23.597C77.5023 23.5297 77.4677 23.5275 76.6475 23.5448C75.6679 23.5654 75.3369 23.5317 74.6626 23.3428C72.0524 22.6111 70.1882 20.4625 69.7968 17.7344C69.7129 17.1504 69.7414 16.026 69.8532 15.5002C70.0432 14.6071 70.4427 13.6606 70.9217 12.9685C71.3104 12.4071 72.1122 11.6105 72.6769 11.2247C73.9556 10.3512 75.3684 9.956 76.8695 10.0519C78.1234 10.132 79.3765 10.6086 80.4342 11.4079C80.8108 11.6924 81.5178 12.4258 81.7816 12.8054C82.9336 14.4633 83.3157 16.3235 82.8976 18.2385C82.8456 18.4768 82.7528 18.8182 82.6914 18.9972C82.592 19.2872 81.4439 21.7772 77.6697 29.8877C75.7913 33.9241 74.1893 37.3397 74.1572 37.3766C74.1397 37.3968 73.7017 37.2072 73.1143 36.9251C72.5573 36.6576 71.6757 36.2345 71.1551 35.9848C70.1957 35.5246 68.7077 34.8076 63.3236 32.2106C57.83 29.5609 55.6627 28.5314 55.2122 28.3578C53.258 27.6048 51.1995 27.2744 48.9408 27.3515C48.0954 27.3803 47.6609 27.423 46.845 27.5573C42.7809 28.2264 39.2066 30.3579 36.6149 33.6579C33.2299 37.9678 32.1419 43.7796 33.7235 49.1019C34.0068 50.0552 34.532 51.32 35.0308 52.2505C37.0289 55.9775 40.4196 58.8482 44.3691 60.1568C47.7356 61.2723 51.4677 61.2457 54.8063 60.0826C55.5743 59.8151 55.9991 59.6348 56.7727 59.2486C59.1138 58.0798 61.1585 56.355 62.7387 54.2162C63.9049 52.6377 64.9293 50.5104 65.4025 48.6846C65.5467 48.1279 65.6434 47.5687 65.6021 47.5295C65.584 47.5123 65.2017 47.3235 64.7526 47.1099C64.3035 46.8962 62.7753 46.1583 61.3566 45.4699C59.9379 44.7816 58.6518 44.1588 58.4987 44.0858C57.1566 43.447 56.145 42.9753 56.1171 42.9753C56.0972 42.9753 56.0953 43.1193 56.1125 43.3262C56.156 43.8488 56.1446 44.7764 56.0908 45.0997C55.7653 47.0563 54.7534 48.686 53.2157 49.7303C51.4174 50.9516 49.3572 51.2424 47.3467 50.5589C45.6202 49.9718 44.2632 48.7589 43.4886 47.1103C42.4101 44.8148 42.6367 42.207 44.0918 40.1681C45.1263 38.7185 46.6654 37.7607 48.4587 37.4505C48.9139 37.3718 49.9962 37.3615 50.4258 37.4319C51.2707 37.5703 51.6966 37.7292 53.2696 38.4925C54.969 39.3173 71.5208 47.3111 83.9973 53.3327C90.2133 56.3328 95.6833 58.9786 96.1528 59.2123C97.1635 59.7153 97.5884 59.8963 98.3612 60.1534C99.5874 60.5614 100.773 60.8123 101.99 60.9212C102.763 60.9904 104.915 60.947 105.618 60.8481C109.349 60.3231 112.738 58.5974 115.286 55.9249C117.543 53.5582 119.018 50.7123 119.644 47.5178C120.428 43.5159 119.798 39.4118 117.867 35.9383C115.447 31.5862 111.346 28.5793 106.538 27.6329C105.415 27.4119 104.911 27.3685 103.446 27.3669C102.028 27.3653 101.686 27.3905 100.607 27.5765C94.159 28.6871 88.9087 33.6758 87.3576 40.1652C87.2857 40.4661 87.2309 40.7161 87.2359 40.7208C87.2866 40.7684 90.9297 42.5344 94.3898 44.1886C95.6657 44.7986 96.7413 45.3148 96.7801 45.3358C96.8464 45.3717 96.8492 45.3627 96.8254 45.1895C96.7297 44.4916 96.7653 43.5513 96.9165 42.7805C97.4559 40.0305 99.647 37.9118 102.424 37.4551C103.161 37.3338 104.239 37.3887 104.995 37.586C106.373 37.9456 107.673 38.7589 108.496 39.7762C110.593 42.3712 110.605 45.9433 108.524 48.497C107.941 49.2131 107.263 49.7591 106.415 50.1955C105.481 50.6763 104.657 50.8933 103.632 50.9289C102.639 50.9634 101.843 50.8222 100.941 50.4515C100.696 50.3508 99.3596 49.7222 97.9715 49.0546C96.5833 48.387 94.3453 47.3114 92.9979 46.6645C86.5007 43.5449 82.987 41.8312 82.9679 41.7726C82.9558 41.7355 83.8411 39.8179 86.6513 33.795C89.7489 27.1562 91.1772 24.0884 91.4025 23.5904C92.036 22.19 92.4586 20.6589 92.6902 18.9244C92.7648 18.3664 92.7738 18.1419 92.7738 16.8569C92.7737 15.3008 92.7356 14.8333 92.5111 13.6324C91.9588 10.6784 90.6567 7.97949 88.6693 5.66919C86.0306 2.60179 82.2666 0.598536 78.2553 0.126583C77.8053 0.0736638 76.4211 -0.0109319 76.2029 0.00116943C76.1519 0.00397664 75.8345 0.0191887 75.4977 0.0349698Z" fill="black"/>
</svg>
